#Comment line ignore any data following # character 
#Hierarchical Translation and Rotation (.htr) file 
[Header]	
#Header keywords are followed by a single value 
FileType HTR		#Single word string
DataType HTRS		#Translation followed by rotation and scale data
FileVersion 1		#integer
NumSegments 64		#integer
NumFrames 3		#integer
DataFrameRate 30		#integer, data frame rate in this file
EulerRotationOrder ZYX
CalibrationUnits mm
RotationUnits Degrees
GlobalAxisofGravity Y
BoneLengthAxis Y
ScaleFactor 1.00
[SegmentNames&Hierarchy]
#CHILD	PARENT
Pinger_Root GLOBAL
Pelvis Pinger_Root
L_Hip Pelvis
R_Hip Pelvis
Rear_Leg01 Pelvis
Spine1 Pelvis
L_Leg01 L_Hip
L_Leg02 L_Leg01
L_Leg03 L_Leg02
L_Foot L_Leg03
L_Toe1_01 L_Foot
L_Toe2_01 L_Foot
L_Toe3_01 L_Foot
planeAlignerLeft L_Foot
L_Toe1_02 L_Toe1_01
L_Toe1_03 L_Toe1_02
L_Toe2_02 L_Toe2_01
L_Toe2_03 L_Toe2_02
L_Toe3_02 L_Toe3_01
L_Toe3_03 L_Toe3_02
planeLockWeightLeft planeAlignerLeft
R_Leg01 R_Hip
R_Leg02 R_Leg01
R_Leg03 R_Leg02
R_Foot R_Leg03
planeAlignerRight R_Foot
R_Toe1_01 R_Foot
R_Toe2_01 R_Foot
R_Toe3_01 R_Foot
planeLockWeightRight planeAlignerRight
R_Toe1_02 R_Toe1_01
R_Toe1_03 R_Toe1_02
R_Toe2_02 R_Toe2_01
R_Toe2_03 R_Toe2_02
R_Toe3_02 R_Toe3_01
R_Toe3_03 R_Toe3_02
Rear_Leg02 Rear_Leg01
Rear_Leg03 Rear_Leg02
Rear_Leg04 Rear_Leg03
Rear_Foot Rear_Leg04
planeAlignerCenter Rear_Foot
Rear_Toe1_01 Rear_Foot
Rear_Toe2_01 Rear_Foot
Rear_Toe3_01 Rear_Foot
planeLockWeightCenter planeAlignerCenter
Rear_Toe1_02 Rear_Toe1_01
Rear_Toe1_03 Rear_Toe1_02
Rear_Toe2_02 Rear_Toe2_01
Rear_Toe2_03 Rear_Toe2_02
Rear_Toe3_02 Rear_Toe3_01
Rear_Toe3_03 Rear_Toe3_02
Back_Bone Spine1
Head Spine1
Motor_Bone Back_Bone
Ping_Mechanism Back_Bone
BN_LookIK Head
bottomMouth Head
L_Mouth01 Head
L_mouthFront Head
mouthGun Head
R_Mouth01 Head
R_mouthFront Head
TopMouth Head
weapon_bone Head
[BasePosition]
#SegmentName Tx, Ty, Tz, Rx, Ry, Rz, BoneLength
Pinger_Root 0.000000 0.000000 0.000000 -90.000000 0.000000 0.000000 10.000000 
Pelvis 0.000000 0.000000 0.000000 0.000000 0.000000 0.000000 10.000000 
L_Hip 0.000000 0.000000 0.000000 0.000000 0.000000 0.000000 10.000000 
R_Hip 0.000000 0.000000 0.000000 0.000000 0.000000 0.000000 10.000000 
Rear_Leg01 0.000000 0.000000 0.000000 0.000000 0.000000 0.000000 10.000000 
Spine1 0.000000 0.000000 0.000000 0.000000 0.000000 0.000000 10.000000 
L_Leg01 0.000000 0.000000 0.000000 0.000000 0.000000 0.000000 10.000000 
L_Leg02 0.000000 0.000000 0.000000 0.000000 0.000000 0.000000 10.000000 
L_Leg03 0.000000 0.000000 0.000000 0.000000 0.000000 0.000000 10.000000 
L_Foot 0.000000 0.000000 0.000000 0.000000 0.000000 0.000000 10.000000 
L_Toe1_01 0.000000 0.000000 0.000000 0.000000 0.000000 0.000000 10.000000 
L_Toe2_01 0.000000 0.000000 0.000000 0.000000 0.000000 0.000000 10.000000 
L_Toe3_01 0.000000 0.000000 0.000000 0.000000 0.000000 0.000000 10.000000 
planeAlignerLeft 0.000000 0.000000 0.000000 0.000000 0.000000 0.000000 10.000000 
L_Toe1_02 0.000000 0.000000 0.000000 0.000000 0.000000 0.000000 10.000000 
L_Toe1_03 0.000000 0.000000 0.000000 0.000000 0.000000 0.000000 10.000000 
L_Toe2_02 0.000000 0.000000 0.000000 0.000000 0.000000 0.000000 10.000000 
L_Toe2_03 0.000000 0.000000 0.000000 0.000000 0.000000 0.000000 10.000000 
L_Toe3_02 0.000000 0.000000 0.000000 0.000000 0.000000 0.000000 10.000000 
L_Toe3_03 0.000000 0.000000 0.000000 0.000000 0.000000 0.000000 10.000000 
planeLockWeightLeft 0.000000 0.000000 0.000000 0.000000 0.000000 0.000000 10.000000 
R_Leg01 0.000000 0.000000 0.000000 0.000000 0.000000 0.000000 10.000000 
R_Leg02 0.000000 0.000000 0.000000 0.000000 0.000000 0.000000 10.000000 
R_Leg03 0.000000 0.000000 0.000000 0.000000 0.000000 0.000000 10.000000 
R_Foot 0.000000 0.000000 0.000000 0.000000 0.000000 0.000000 10.000000 
planeAlignerRight 0.000000 0.000000 0.000000 0.000000 0.000000 0.000000 10.000000 
R_Toe1_01 0.000000 0.000000 0.000000 0.000000 0.000000 0.000000 10.000000 
R_Toe2_01 0.000000 0.000000 0.000000 0.000000 0.000000 0.000000 10.000000 
R_Toe3_01 0.000000 0.000000 0.000000 0.000000 0.000000 0.000000 10.000000 
planeLockWeightRight 0.000000 0.000000 0.000000 0.000000 0.000000 0.000000 10.000000 
R_Toe1_02 0.000000 0.000000 0.000000 0.000000 0.000000 0.000000 10.000000 
R_Toe1_03 0.000000 0.000000 0.000000 0.000000 0.000000 0.000000 10.000000 
R_Toe2_02 0.000000 0.000000 0.000000 0.000000 0.000000 0.000000 10.000000 
R_Toe2_03 0.000000 0.000000 0.000000 0.000000 0.000000 0.000000 10.000000 
R_Toe3_02 0.000000 0.000000 0.000000 0.000000 0.000000 0.000000 10.000000 
R_Toe3_03 0.000000 0.000000 0.000000 0.000000 0.000000 0.000000 10.000000 
Rear_Leg02 0.000000 0.000000 0.000000 0.000000 0.000000 0.000000 10.000000 
Rear_Leg03 0.000000 0.000000 0.000000 0.000000 0.000000 0.000000 10.000000 
Rear_Leg04 0.000000 0.000000 0.000000 0.000000 0.000000 0.000000 10.000000 
Rear_Foot 0.000000 0.000000 0.000000 0.000000 0.000000 0.000000 10.000000 
planeAlignerCenter 0.000000 0.000000 0.000000 0.000000 0.000000 0.000000 10.000000 
Rear_Toe1_01 0.000000 0.000000 0.000000 0.000000 0.000000 0.000000 10.000000 
Rear_Toe2_01 0.000000 0.000000 0.000000 0.000000 0.000000 0.000000 10.000000 
Rear_Toe3_01 0.000000 0.000000 0.000000 0.000000 0.000000 0.000000 10.000000 
planeLockWeightCenter 0.000000 0.000000 0.000000 0.000000 0.000000 0.000000 10.000000 
Rear_Toe1_02 0.000000 0.000000 0.000000 0.000000 0.000000 0.000000 10.000000 
Rear_Toe1_03 0.000000 0.000000 0.000000 0.000000 0.000000 0.000000 10.000000 
Rear_Toe2_02 0.000000 0.000000 0.000000 0.000000 0.000000 0.000000 10.000000 
Rear_Toe2_03 0.000000 0.000000 0.000000 0.000000 0.000000 0.000000 10.000000 
Rear_Toe3_02 0.000000 0.000000 0.000000 0.000000 0.000000 0.000000 10.000000 
Rear_Toe3_03 0.000000 0.000000 0.000000 0.000000 0.000000 0.000000 10.000000 
Back_Bone 0.000000 0.000000 0.000000 0.000000 0.000000 0.000000 10.000000 
Head 0.000000 0.000000 0.000000 0.000000 0.000000 0.000000 10.000000 
Motor_Bone 0.000000 0.000000 0.000000 0.000000 0.000000 0.000000 10.000000 
Ping_Mechanism 0.000000 0.000000 0.000000 0.000000 0.000000 0.000000 10.000000 
BN_LookIK 0.000000 0.000000 0.000000 0.000000 0.000000 0.000000 10.000000 
bottomMouth 0.000000 0.000000 0.000000 0.000000 0.000000 0.000000 10.000000 
L_Mouth01 0.000000 0.000000 0.000000 0.000000 0.000000 0.000000 10.000000 
L_mouthFront 0.000000 0.000000 0.000000 0.000000 0.000000 0.000000 10.000000 
mouthGun 0.000000 0.000000 0.000000 0.000000 0.000000 0.000000 10.000000 
R_Mouth01 0.000000 0.000000 0.000000 0.000000 0.000000 0.000000 10.000000 
R_mouthFront 0.000000 0.000000 0.000000 0.000000 0.000000 0.000000 10.000000 
TopMouth 0.000000 0.000000 0.000000 0.000000 0.000000 0.000000 10.000000 
weapon_bone 0.000000 0.000000 0.000000 0.000000 0.000000 0.000000 10.000000 
#Beginning of Data. Separated by tabs
#Fr	Tx	Ty	Tz	Rx	Ry	Rz	SF
[Pinger_Root]
61 -2499.999756 -0.000690 0.000000 -0.000075 -0.000000 -0.000020 2499.999756
62 -2499.999756 -0.000690 0.000000 -0.000075 -0.000000 -0.000020 2499.999756
63 -2499.999756 -0.000690 0.000000 -0.000075 -0.000000 -0.000020 2499.999756
[Pelvis]
61 -124.940033 973.006897 4109.575684 -73.241837 -71.268776 78.552734 4225.040527
62 -112.549568 976.221924 4138.589355 -73.877472 -70.392891 78.242599 4253.657227
63 -100.159073 979.436890 4167.603516 -74.359848 -70.020988 77.844627 4282.317871
[L_Hip]
61 5.766392 125.831482 872.656799 160.551178 -62.216816 114.300819 881.701050
62 5.766392 125.831482 872.656799 160.318451 -60.916340 114.989136 881.701050
63 5.766392 125.831482 872.656799 160.125854 -59.615810 115.639626 881.701050
[R_Hip]
61 5.765438 125.836372 -872.654907 34.209644 65.178818 121.319923 881.699829
62 5.765438 125.836372 -872.654907 34.815559 64.001862 121.877022 881.699829
63 5.765438 125.836372 -872.654907 35.371861 62.822960 122.384315 881.699829
[Rear_Leg01]
61 -192.298416 -925.602966 -0.001907 -176.448029 1.285199 -154.404831 945.367432
62 -192.298416 -925.602966 -0.001907 -177.186737 2.073750 -157.431198 945.367432
63 -192.298416 -925.602966 -0.001907 -177.949585 2.730317 -159.694672 945.367432
[Spine1]
61 290.604584 5.007505 0.000477 -1.385913 -3.577724 5.765035 290.647736
62 290.604584 5.007505 0.000477 -0.794242 -3.861558 4.800310 290.647736
63 290.604584 5.007505 0.000477 -0.289084 -3.999624 4.352907 290.647736
[L_Leg01]
61 761.932007 -0.002384 -0.069261 19.511686 -48.682114 -19.920322 761.932068
62 761.932007 -0.002384 -0.069261 17.390404 -47.123959 -16.993322 761.932068
63 761.932007 -0.002384 -0.069261 15.446101 -45.497242 -14.234447 761.932068
[L_Leg02]
61 1441.140503 -0.000954 -0.000715 2.619143 -0.066175 -122.331734 1441.140503
62 1441.140503 -0.000954 -0.000715 2.648776 -0.069955 -122.984535 1441.140503
63 1441.140503 -0.000954 -0.000715 2.678446 -0.073397 -123.637314 1441.140503
[L_Leg03]
61 1686.963989 -0.000715 -0.000954 -0.042990 0.019335 121.369621 1686.963989
62 1686.963989 -0.000715 -0.000954 -0.043005 0.019301 121.278831 1686.963989
63 1686.963989 -0.000715 -0.000954 -0.043020 0.019267 121.188034 1686.963989
[L_Foot]
61 3041.570068 -30.715107 11.297464 4.562644 9.277080 44.200115 3041.746094
62 3041.570068 -30.715107 11.297464 4.516339 9.551769 45.351475 3041.746094
63 3041.570068 -30.715107 11.297464 4.381270 9.834387 46.139282 3041.746094
[L_Toe1_01]
61 -188.216690 -224.732346 -21.137953 91.805313 -5.165139 -169.795410 293.899567
62 -188.216690 -224.732346 -21.137953 91.981529 -5.305459 -170.343765 293.899567
63 -188.216690 -224.732346 -21.137953 92.159119 -5.444087 -170.892624 293.899567
[L_Toe2_01]
61 200.746536 -219.926590 148.838394 -85.896584 -21.090517 -44.092861 332.896027
62 200.746536 -219.926590 148.838394 -86.262589 -21.492043 -44.607170 332.896027
63 200.746536 -219.926590 148.838394 -86.625771 -21.896688 -45.120247 332.896027
[L_Toe3_01]
61 188.832520 -219.859131 -191.078659 -103.026817 21.499716 -53.476276 347.140900
62 188.832520 -219.859131 -191.078659 -102.722305 20.882483 -54.212959 347.140900
63 188.832520 -219.859131 -191.078659 -102.534409 20.345774 -55.152294 347.140900
[planeAlignerLeft]
61 61.588463 -530.617065 43.992062 169.360596 -82.652069 94.811905 535.987793
62 60.870995 -532.440857 48.361607 169.412537 -82.191940 94.403969 538.086792
63 60.153526 -534.264709 52.731148 169.438812 -81.731644 94.021347 540.220093
[L_Toe1_02]
61 413.761139 0.000477 0.000000 0.001385 -25.870834 0.001385 413.761139
62 413.761139 0.000477 0.000000 0.001385 -25.884359 0.001385 413.761139
63 413.761139 0.000477 0.000000 0.001385 -25.897896 0.001385 413.761139
[L_Toe1_03]
61 464.317322 0.000358 -0.000089 0.004053 56.334515 0.004053 464.317322
62 464.317322 0.000358 -0.000089 0.004072 56.500282 0.004072 464.317322
63 464.317322 0.000358 -0.000089 0.004092 56.666050 0.004092 464.317322
[L_Toe2_02]
61 342.235809 -0.000477 0.000238 0.001184 -75.089615 0.001184 342.235809
62 342.235809 -0.000477 0.000238 0.001184 -74.938026 0.001184 342.235809
63 342.235809 -0.000477 0.000238 0.001184 -74.786423 0.001184 342.235809
[L_Toe2_03]
61 420.210846 -0.000715 0.000000 -179.980408 86.913391 -179.976913 420.210846
62 420.210846 -0.000715 0.000000 -179.976517 87.390076 -179.973007 420.210846
63 420.210846 -0.000715 0.000000 -179.970856 87.867233 -179.967361 420.210846
[L_Toe3_02]
61 329.270111 0.000954 0.000000 0.002651 -82.609840 0.002651 329.270111
62 329.270111 0.000954 0.000000 0.002467 -82.511375 0.002467 329.270111
63 329.270111 0.000954 0.000000 0.002283 -82.412865 0.002283 329.270111
[L_Toe3_03]
61 439.137451 -0.001907 0.000954 179.992493 67.948593 179.998901 439.137451
62 439.137451 -0.001907 0.000954 179.994614 68.475906 -179.999695 439.137451
63 439.137451 -0.001907 0.000954 179.996826 69.003212 -179.998184 439.137451
[planeLockWeightLeft]
61 1000.000366 0.000000 -0.000126 -0.011826 -0.004376 0.005620 1000.000366
62 1000.000366 0.000000 -0.000137 -0.011826 -0.004376 0.005620 1000.000366
63 1000.000366 0.000000 -0.000149 -0.011826 -0.004376 0.005620 1000.000366
[R_Leg01]
61 761.455627 -0.001907 -0.000358 141.724274 -4.614860 35.427387 761.455688
62 761.455627 -0.001907 -0.000358 142.004044 -5.664935 33.658836 761.455688
63 761.455627 -0.001907 -0.000358 141.865555 -6.605542 32.094486 761.455688
[R_Leg02]
61 1441.140625 0.000000 -0.000238 -2.491766 -1.238895 -119.601776 1441.140625
62 1441.140625 0.000000 -0.000238 -2.446897 -1.174670 -119.868904 1441.140625
63 1441.140625 0.000000 -0.000238 -2.402329 -1.110236 -120.135994 1441.140625
[R_Leg03]
61 1686.963989 0.000954 0.001431 0.133174 -0.087176 146.334991 1686.963989
62 1686.963989 0.000954 0.001431 0.131431 -0.085595 145.916687 1686.963989
63 1686.963989 0.000954 0.001431 0.128950 -0.083041 145.095718 1686.963989
[R_Foot]
61 3041.560059 -30.531288 -11.204481 4.426257 -10.766154 50.586369 3041.734131
62 3041.560059 -30.531288 -11.204481 3.418113 -11.037350 51.110653 3041.734131
63 3041.560059 -30.531288 -11.204481 2.867705 -11.482785 51.443836 3041.734131
[planeAlignerRight]
61 -119.634842 -594.036499 -294.204010 -36.679607 -72.540749 -63.622173 673.608093
62 -123.688225 -583.371948 -304.278259 -36.629021 -72.011261 -63.945965 669.482544
63 -126.243515 -576.475769 -310.660095 -36.589207 -71.481644 -64.259224 666.911865
[R_Toe1_01]
61 -188.383347 -224.864899 21.052242 76.147919 -0.779272 -171.029419 294.101532
62 -188.383347 -224.864899 21.052242 75.548164 -0.671452 -171.986252 294.101532
63 -188.383347 -224.864899 21.052242 75.290047 -0.600495 -172.507614 294.101532
[R_Toe2_01]
61 200.637817 -220.002121 -148.787384 -96.093964 29.301464 -58.920448 332.857574
62 200.637817 -220.002121 -148.787384 -95.736794 30.571571 -59.017254 332.857574
63 200.637817 -220.002121 -148.787384 -95.388206 31.425035 -59.081814 332.857574
[R_Toe3_01]
61 188.606735 -220.092957 191.126343 -69.799988 -9.382082 -73.387573 347.192566
62 188.606735 -220.092957 191.126343 -70.287247 -8.369996 -73.444397 347.192566
63 188.606735 -220.092957 191.126343 -70.634361 -7.834836 -73.476440 347.192566
[planeLockWeightRight]
61 999.999634 0.000416 -0.000443 -0.011823 -0.004379 -0.000027 999.999634
62 999.999634 0.000411 -0.000452 -0.011823 -0.004379 -0.000027 999.999634
63 999.999634 0.000405 -0.000461 -0.011823 -0.004379 -0.000027 999.999634
[R_Toe1_02]
61 413.762085 0.000477 -0.000119 0.001393 -24.846685 0.001393 413.762085
62 413.762085 0.000477 -0.000119 0.001393 -24.758144 0.001393 413.762085
63 413.762085 0.000477 -0.000119 0.001394 -24.669609 0.001394 413.762085
[R_Toe1_03]
61 464.317810 0.000000 0.001088 0.006426 68.954712 0.006426 464.317810
62 464.317810 0.000000 0.001088 0.006516 69.246933 0.006516 464.317810
63 464.317810 0.000000 0.001088 0.006608 69.539154 0.006608 464.317810
[R_Toe2_02]
61 342.234741 -0.000954 0.000238 0.001198 -66.906960 0.001198 342.234741
62 342.234741 -0.000954 0.000238 0.001198 -66.984039 0.001198 342.234741
63 342.234741 -0.000954 0.000238 0.001198 -67.061142 0.001198 342.234741
[R_Toe2_03]
61 420.210846 0.000715 -0.000268 0.008101 73.340515 0.008101 420.210846
62 420.210846 0.000715 -0.000268 0.008113 73.364655 0.008113 420.210846
63 420.210846 0.000715 -0.000268 0.008125 73.388809 0.008125 420.210846
[R_Toe3_02]
61 329.270355 -0.000477 -0.000954 0.001186 -73.656258 0.001186 329.270355
62 329.270355 -0.000477 -0.000954 0.001185 -74.043991 0.001185 329.270355
63 329.270355 -0.000477 -0.000954 0.001185 -74.431648 0.001185 329.270355
[R_Toe3_03]
61 439.137939 0.000238 0.001431 0.016057 81.616714 0.016057 439.137939
62 439.137939 0.000238 0.001431 0.003617 82.356018 0.005369 439.137939
63 439.137939 0.000238 0.001431 -0.011295 83.095245 -0.007792 439.137939
[Rear_Leg02]
61 1162.777710 -0.029802 0.005960 -0.177549 9.032217 -89.271873 1162.777710
62 1162.777710 -0.029802 0.005960 0.075278 5.889727 -90.306366 1162.777710
63 1162.777710 -0.029802 0.005960 0.155867 3.227180 -90.800835 1162.777710
[Rear_Leg03]
61 607.192505 -0.013351 -0.073195 0.006536 -0.001913 60.846371 607.192505
62 607.192505 -0.013351 -0.073195 0.006547 -0.001877 60.206062 607.192505
63 607.192505 -0.013351 -0.073195 0.006557 -0.001840 59.565746 607.192505
[Rear_Leg04]
61 995.874512 -0.020504 -0.011921 -0.039578 -0.017479 51.617619 995.874573
62 995.874512 -0.020504 -0.011921 -0.039388 -0.017903 50.384579 995.874573
63 995.874512 -0.020504 -0.011921 -0.039188 -0.018324 49.151691 995.874573
[Rear_Foot]
61 3096.176270 -0.067472 -0.041425 66.594124 81.761147 -99.925209 3096.176270
62 3096.176270 -0.067472 -0.041425 73.265335 84.983238 -92.907906 3096.176270
63 3096.176270 -0.067472 -0.041425 90.702782 87.381096 -75.323563 3096.176270
[planeAlignerCenter]
61 -5.428818 -48.011791 -501.151428 7.044639 -0.001555 179.998245 503.475281
62 -5.764846 -57.602249 -507.381439 7.429684 -0.001550 179.998230 510.673248
63 -6.100873 -67.192703 -513.611633 7.814706 -0.001544 179.998230 518.024109
[Rear_Toe1_01]
61 0.653352 83.966492 -371.173737 0.305732 14.607029 90.743889 380.553192
62 0.653352 83.966492 -371.173737 0.326510 15.012312 90.773453 380.553192
63 0.653352 83.966492 -371.173737 0.351753 15.990936 90.794334 380.553192
[Rear_Toe2_01]
61 178.200760 -294.826019 -362.060547 -4.532211 25.460522 -66.542725 499.765686
62 178.200760 -294.826019 -362.060547 -4.870505 25.118856 -66.879059 499.765686
63 178.200760 -294.826019 -362.060547 -5.205647 24.775417 -67.212265 499.765686
[Rear_Toe3_01]
61 -153.359680 -308.780914 -362.060852 2.207836 24.610826 -112.357193 499.952881
62 -153.359680 -308.780914 -362.060852 2.355475 24.163399 -112.147820 499.952881
63 -153.359680 -308.780914 -362.060852 2.500809 23.715494 -111.940445 499.952881
[planeLockWeightCenter]
61 1000.000244 0.000610 -0.000130 -0.011814 -0.004373 -0.000015 1000.000244
62 1000.000244 0.000610 -0.000127 -0.011814 -0.004373 -0.000015 1000.000244
63 1000.000244 0.000610 -0.000124 -0.011814 -0.004373 -0.000015 1000.000244
[Rear_Toe1_02]
61 379.707825 0.194073 0.000477 -0.002647 -32.704987 -0.002647 379.707855
62 379.707825 0.194073 0.000477 -0.002648 -32.652172 -0.002648 379.707855
63 379.707825 0.194073 0.000477 -0.002648 -32.599365 -0.002648 379.707855
[Rear_Toe1_03]
61 500.129700 0.165701 0.000119 -179.945663 88.747269 -179.949158 500.129761
62 500.129700 0.165701 0.000119 -179.970535 87.622978 -179.974045 500.129761
63 500.129700 0.165701 0.000119 -179.976624 86.955345 -179.980118 500.129761
[Rear_Toe2_02]
61 340.494507 0.000238 -0.000954 0.001196 -67.998070 0.001196 340.494507
62 340.494507 0.000238 -0.000954 0.001198 -66.833549 0.001198 340.494507
63 340.494507 0.000238 -0.000954 0.001201 -65.669075 0.001201 340.494507
[Rear_Toe2_03]
61 433.103577 0.000000 0.000238 0.005907 67.071167 0.005907 433.103546
62 433.103577 0.000000 0.000238 0.005506 65.370827 0.005506 433.103546
63 433.103577 0.000000 0.000238 0.005156 63.670135 0.005156 433.103546
[Rear_Toe3_02]
61 340.494141 -0.000358 -0.000477 0.004738 -63.755993 -0.006816 340.494171
62 340.494141 -0.000358 -0.000477 0.002169 -62.368221 -0.005154 340.494171
63 340.494141 -0.000358 -0.000477 -0.000204 -60.980450 -0.003694 340.494171
[Rear_Toe3_03]
61 433.103577 0.001431 -0.000238 -0.000497 61.081890 -0.004110 433.103546
62 433.103577 0.001431 -0.000238 -0.000351 59.202045 -0.003982 433.103546
63 433.103577 0.001431 -0.000238 -0.000221 57.321182 -0.003870 433.103546
[Back_Bone]
61 1312.175781 -701.934692 0.000954 0.970711 -2.234701 -86.754173 1488.125488
62 1312.175781 -701.934692 0.000954 0.858318 -2.229474 -86.679504 1488.125488
63 1312.175781 -701.934692 0.000954 0.745932 -2.224099 -86.604836 1488.125488
[Head]
61 1406.159424 809.709290 0.001431 -5.322133 0.477537 4.053847 1622.625488
62 1406.159424 809.709290 0.001431 -5.143889 0.339211 4.313788 1622.625488
63 1406.159424 809.709290 0.001431 -4.966302 0.200098 4.573262 1622.625488
[Motor_Bone]
61 1158.364380 -417.834747 0.000477 -1.960025 -0.663914 -106.649643 1231.419434
62 1158.364380 -417.834747 0.000477 -1.845121 -0.485023 -106.470421 1231.419434
63 1158.364380 -417.834747 0.000477 -1.729661 -0.306494 -106.290825 1231.419434
[Ping_Mechanism]
61 1303.639404 -458.950653 22.899328 0.000103 -0.000053 82.120995 1382.257568
62 1307.611572 -459.483582 24.293575 0.000103 -0.000053 82.120995 1386.204712
63 1309.392456 -459.682922 24.869919 0.000103 -0.000053 82.120995 1387.960938
[BN_LookIK]
61 193.241119 1380.371704 -0.002861 0.000000 89.965736 -31.038179 1393.832153
62 193.241119 1380.371704 -0.002861 0.000000 89.965736 -31.038179 1393.832153
63 193.241119 1380.371704 -0.002861 0.000000 89.965736 -31.038179 1393.832153
[bottomMouth]
61 -435.092926 615.759399 -0.000954 -0.000022 0.000016 73.527184 753.966492
62 -435.092926 615.759399 -0.000954 -0.000022 0.000016 73.527184 753.966492
63 -435.092926 615.759399 -0.000954 -0.000022 0.000016 73.527184 753.966492
[L_Mouth01]
61 554.440979 7.658243 838.222046 150.204178 23.759130 109.605339 1005.027161
62 554.440979 7.658243 838.222046 150.204178 23.759130 109.605339 1005.027161
63 554.440979 7.658243 838.222046 150.204178 23.759130 109.605339 1005.027161
[L_mouthFront]
61 551.629089 934.514771 339.150421 0.000081 2.804060 79.119301 1136.941284
62 551.629089 934.514771 339.150421 0.000081 2.804060 79.119301 1136.941284
63 551.629089 934.514771 339.150421 0.000081 2.804060 79.119301 1136.941284
[mouthGun]
61 55.332661 1627.420898 0.000000 0.000023 0.000009 -11.038128 1628.361328
62 55.332661 1627.420898 0.000000 0.000023 0.000009 -11.038128 1628.361328
63 55.332661 1627.420898 0.000000 0.000023 0.000009 -11.038128 1628.361328
[R_Mouth01]
61 554.442383 7.659197 -838.223938 29.795891 -23.759109 109.605331 1005.029541
62 554.442383 7.659197 -838.223938 29.795891 -23.759109 109.605331 1005.029541
63 554.442383 7.659197 -838.223938 29.795891 -23.759109 109.605331 1005.029541
[R_mouthFront]
61 551.629089 934.514282 -339.151367 0.000029 -2.803930 79.119133 1136.941162
62 551.629089 934.514282 -339.151367 0.000029 -2.803930 79.119133 1136.941162
63 551.629089 934.514282 -339.151367 0.000029 -2.803930 79.119133 1136.941162
[TopMouth]
61 461.269867 -56.106091 -0.008583 -0.000059 -0.000268 92.025169 464.669525
62 461.269867 -56.106091 -0.008583 -0.000059 -0.000268 92.025169 464.669525
63 461.269867 -56.106091 -0.008583 -0.000059 -0.000268 92.025169 464.669525
[weapon_bone]
61 -987.239868 1448.372803 0.001431 0.000000 89.965736 -31.038221 1752.833740
62 -987.239868 1448.372803 0.001431 0.000000 89.965736 -31.038221 1752.833740
63 -987.239868 1448.372803 0.001431 0.000000 89.965736 -31.038221 1752.833740
